<?xml version="1.0" encoding="utf-8"?>
<!-- Generator: Adobe Illustrator 24.3.0, SVG Export Plug-In . SVG Version: 6.00 Build 0)  -->
<svg version="1.1" id="user" xmlns="http://www.w3.org/2000/svg" xmlns:xlink="http://www.w3.org/1999/xlink" x="0px" y="0px"
	 viewBox="0 0 583 583" style="enable-background:new 0 0 583 583;" xml:space="preserve">
<path d="M290.7,324c82,0,147.7-66.5,147.7-147.7S372.7,27.7,290.7,27.7S143,94.3,143,175.4S208.7,324,290.7,324z M290.7,66.7
	c60.1,0,108.8,48.7,108.8,108.8s-48.7,108.8-108.8,108.8s-108.8-47.9-108.8-107.9S230.6,66.7,290.7,66.7z M34.2,555.3h514.5
	c10.6,0,19.5-8.9,19.5-19.5c0-102.3-83.6-185.9-185.9-185.9H200.6c-102.3,0-185.9,83.6-185.9,185.9
	C14.7,546.3,23.7,555.3,34.2,555.3z M200.6,388.9h181.8c74.7,0,135.5,55.2,145.3,127.4H55.3C65.1,444.1,125.9,388.9,200.6,388.9z"/>
</svg>
