<?xml version="1.0" encoding="utf-8"?>
<!-- Generator: Adobe Illustrator 24.3.0, SVG Export Plug-In . SVG Version: 6.00 Build 0)  -->
<svg version="1.1" id="search" xmlns="http://www.w3.org/2000/svg" xmlns:xlink="http://www.w3.org/1999/xlink" x="0px" y="0px"
	 viewBox="0 0 583 600" style="enable-background:new 0 0 583 600;" xml:space="preserve">
<path d="M398.5,379.5c32-38.7,52.2-88.3,52.2-143c0-122.8-100.1-223-223-223s-223,100.1-223,223s100.1,223,223,223
	c53.8,0,104.3-19.4,143-52.2L544,580.6c4.2,4.2,9.3,5.9,14.3,5.9s10.1-1.7,14.3-5.9c7.6-7.6,7.6-21,0-28.6L398.5,379.5z
	 M226.8,419.1c-101,0-182.6-81.6-182.6-182.6S125.9,53.9,226.8,53.9s182.6,81.6,182.6,182.6S327.8,419.1,226.8,419.1L226.8,419.1z"
	/>
</svg>
