<?xml version="1.0" encoding="utf-8"?>
<!-- Generator: Adobe Illustrator 24.3.0, SVG Export Plug-In . SVG Version: 6.00 Build 0)  -->
<svg version="1.1" id="Layer_1" xmlns="http://www.w3.org/2000/svg" xmlns:xlink="http://www.w3.org/1999/xlink" x="0px" y="0px"
	 viewBox="0 0 581.1 581.1" style="enable-background:new 0 0 581.1 581.1;" xml:space="preserve">
<path d="M363.2,145.3H193.7v-24.2h169.5V145.3z M363.2,242.1H193.7v24.2h169.5V242.1z M121.1,351.1c-13.4,0-24.2,10.8-24.2,24.2
	s10.8,24.2,24.2,24.2s24.2-10.8,24.2-24.2S134.4,351.1,121.1,351.1z M121.1,109c-13.4,0-24.2,10.8-24.2,24.2s10.8,24.2,24.2,24.2
	s24.2-10.8,24.2-24.2S134.4,109,121.1,109z M121.1,230c-13.4,0-24.2,10.8-24.2,24.2c0,13.4,10.8,24.2,24.2,24.2s24.2-10.8,24.2-24.2
	C145.3,240.9,134.4,230,121.1,230z M581.1,400.7c0,83.1-133.2,167.8-138.8,171.3l-6.4,4.1l-6.4-4.1c-5.7-3.5-138.8-88.2-138.8-171.3
	c0-47.4,35.3-86,78.7-86c29.4,0,53.1,16,66.6,42.3c13.5-26.2,37.2-42.3,66.6-42.3C545.8,314.8,581.1,353.3,581.1,400.7z
	 M556.9,400.7c0-34-24.4-61.7-54.5-61.7c-32.6,0-54.5,29.2-54.5,72.6h-24.2c0-43.4-21.9-72.6-54.5-72.6c-30,0-54.5,27.7-54.5,61.7
	c0,54.7,82.1,120.7,121.1,146.7C474.8,521.4,556.9,455.4,556.9,400.7z M24.2,556.9V60.5c0-20,16.3-36.3,36.3-36.3h339
	c20,0,36.3,16.3,36.3,36.3V281c7.8-4,15.9-7.2,24.2-9.6V60.5C460,27.1,432.9,0,399.5,0h-339C27.2,0,0,27.1,0,60.5v520.6h358.7
	c-9-7.1-18.6-15.3-28.3-24.2H24.2z M193.7,387.4h48.9c0.4-8.3,1.5-16.3,3.2-24.2h-52.1V387.4z"/>
</svg>
