<?xml version="1.0" encoding="utf-8"?>
<!-- Generator: Adobe Illustrator 24.3.0, SVG Export Plug-In . SVG Version: 6.00 Build 0)  -->
<svg version="1.1" id="Layer_1" xmlns="http://www.w3.org/2000/svg" xmlns:xlink="http://www.w3.org/1999/xlink" x="0px" y="0px"
	 viewBox="0 0 4000 4000" enable-background="new 0 0 4000 4000" xml:space="preserve">
<g>
	<defs>
		<path id="SVGID_1_" d="M2898.209,1778.082c-179.713-177.78-359.428-355.561-539.144-533.341l-179.713,177.78l359.429,355.561
			c-179.713,177.78-359.429,355.561-539.144,533.341c-179.715-177.78-359.429-355.561-539.144-533.341l359.429-355.561
			l-179.713-177.78c-179.715,177.78-359.429,355.561-539.144,533.341c299.524,296.299,599.049,592.601,898.573,888.9
			C2299.162,2370.682,2598.686,2074.381,2898.209,1778.082"/>
	</defs>
	<clipPath id="SVGID_2_">
		<use xlink:href="#SVGID_1_"  overflow="visible"/>
	</clipPath>
	<rect x="1101.064" y="1244.741" clip-path="url(#SVGID_2_)" fill="#FFFFFF" width="1797.146" height="1422.24"/>
</g>
<polygon fill-rule="evenodd" clip-rule="evenodd" fill="#FFFFFF" points="1819.921,1778.082 1999.636,1955.861 2179.352,1778.082 
	1999.636,1600.302 "/>
<g>
	<defs>
		<polygon id="SVGID_3_" points="1819.921,1066.961 1999.636,1244.743 2179.352,1066.961 1999.636,889.182 		"/>
	</defs>
	<use xlink:href="#SVGID_3_"  overflow="visible" fill-rule="evenodd" clip-rule="evenodd" fill="#FFFFFF"/>
	<clipPath id="SVGID_4_">
		<use xlink:href="#SVGID_3_"  overflow="visible"/>
	</clipPath>
	<rect x="1819.921" y="889.182" clip-path="url(#SVGID_4_)" fill="#FFFFFF" width="359.431" height="355.561"/>
</g>
<g>
	<defs>
		<path id="SVGID_5_" d="M2533.351,2139.014c121.62-120.31,243.24-240.622,364.858-360.932
			c-179.713-177.78-359.428-355.561-539.144-533.341l-179.713,177.78l328.892,325.353c12.04,11.407,31.999,31.808,31.999,31.808
			C2637.784,1888.623,2640.448,2032.734,2533.351,2139.014"/>
	</defs>
	<clipPath id="SVGID_6_">
		<use xlink:href="#SVGID_5_"  overflow="visible"/>
	</clipPath>
	<rect x="2179.352" y="1244.741" clip-path="url(#SVGID_6_)" fill="#CDCDCD" width="718.857" height="894.273"/>
</g>
<g>
	<defs>
		<path id="SVGID_7_" d="M1465.924,2139.014c-121.62-120.31-243.24-240.622-364.86-360.932
			c179.715-177.78,359.429-355.561,539.144-533.341l179.713,177.78l-328.891,325.353c-12.038,11.407-31.999,31.808-31.999,31.808
			C1361.491,1888.623,1358.824,2032.734,1465.924,2139.014"/>
	</defs>
	<clipPath id="SVGID_8_">
		<use xlink:href="#SVGID_7_"  overflow="visible"/>
	</clipPath>
	<rect x="1101.064" y="1244.741" clip-path="url(#SVGID_8_)" fill="#CDCDCD" width="718.857" height="894.273"/>
</g>
<defs>
	<filter id="Adobe_OpacityMaskFilter" filterUnits="userSpaceOnUse" x="1385.73" y="1778.137" width="127.687" height="360.877">
		<feColorMatrix  type="matrix" values="1 0 0 0 0  0 1 0 0 0  0 0 1 0 0  0 0 0 1 0"/>
	</filter>
</defs>
<mask maskUnits="userSpaceOnUse" x="1385.73" y="1778.137" width="127.687" height="360.877" id="SVGID_9_">
	<g filter="url(#Adobe_OpacityMaskFilter)">
		
			<linearGradient id="SVGID_10_" gradientUnits="userSpaceOnUse" x1="1412.6217" y1="1991.5961" x2="1381.9432" y2="2456.366" gradientTransform="matrix(1 0 0 1 51.4556 -252.7586)">
			<stop  offset="0" style="stop-color:#FFFFFF"/>
			<stop  offset="1" style="stop-color:#000000"/>
		</linearGradient>
		<rect x="1385.729" y="1778.137" fill="url(#SVGID_10_)" width="127.688" height="360.877"/>
	</g>
</mask>
<path mask="url(#SVGID_9_)" fill-rule="evenodd" clip-rule="evenodd" fill="#FFFFFF" d="M1465.924,2139.014
	c0,0-80.626-170.286,47.493-308.578c-17.623-17.433-35.246-34.865-52.869-52.298c-0.97,0.985-1.517,1.544-1.517,1.544
	c-97.509,108.91-100.204,252.964,6.795,359.234C1465.858,2138.948,1465.89,2138.98,1465.924,2139.014"/>
<defs>
	
		<filter id="Adobe_OpacityMaskFilter_1_" filterUnits="userSpaceOnUse" x="2485.856" y="1778.137" width="127.689" height="360.877">
		<feColorMatrix  type="matrix" values="1 0 0 0 0  0 1 0 0 0  0 0 1 0 0  0 0 0 1 0"/>
	</filter>
</defs>
<mask maskUnits="userSpaceOnUse" x="2485.856" y="1778.137" width="127.689" height="360.877" id="SVGID_11_">
	<g filter="url(#Adobe_OpacityMaskFilter_1_)">
		
			<linearGradient id="SVGID_12_" gradientUnits="userSpaceOnUse" x1="2337.7893" y1="1991.5959" x2="2368.4678" y2="2456.3662" gradientTransform="matrix(1 0 0 1 197.4073 -252.7586)">
			<stop  offset="0" style="stop-color:#FFFFFF"/>
			<stop  offset="1" style="stop-color:#000000"/>
		</linearGradient>
		<rect x="2485.856" y="1778.137" fill="url(#SVGID_12_)" width="127.69" height="360.877"/>
	</g>
</mask>
<path mask="url(#SVGID_11_)" fill-rule="evenodd" clip-rule="evenodd" fill="#FFFFFF" d="M2533.351,2139.014
	c0,0,80.626-170.286-47.495-308.578c17.625-17.433,35.248-34.865,52.871-52.298c0.968,0.985,1.515,1.544,1.515,1.544
	c97.512,108.91,100.207,252.964-6.793,359.234C2533.415,2138.948,2533.384,2138.98,2533.351,2139.014"/>
<path fill="#CDCDCD" d="M3001.396,2933.78h-94.48v-27.439h85.679v-41.675h-85.679v-25.886h90.857v-42.968h-141.333v181.196h144.957
	V2933.78z M2695.952,2795.812v181.196h137.968v-43.487h-86.716v-137.709H2695.952z M2600.434,2928.085
	c48.406-0.517,72.737-29.25,72.737-66.265c0-35.465-24.073-66.008-72.737-66.008h-88.008v181.196h51.251v-48.923H2600.434z
	 M2563.677,2839.817h36.757c13.978,0,21.486,10.871,21.486,22.779c0,11.907-7.25,22.262-21.486,22.262h-36.757V2839.817z
	 M2483.433,2933.78h-94.48v-27.439h85.679v-41.675h-85.679v-25.886h90.857v-42.968h-141.333v181.196h144.957V2933.78z
	 M2260.561,2886.411c0,30.026-19.413,51.251-49.44,51.251c-28.992,0-49.441-20.967-49.441-51.251
	c0-30.027,20.191-51.254,49.441-51.254C2241.148,2835.157,2260.561,2855.348,2260.561,2886.411z M2311.815,2886.411
	c0-60.314-41.158-95-100.694-95c-59.277,0-100.693,35.464-100.693,95c0,60.572,41.417,95,100.693,95
	C2270.657,2981.41,2311.815,2946.982,2311.815,2886.411z M2025.005,2928.085c48.406-0.517,72.738-29.25,72.738-66.265
	c0-35.465-24.074-66.008-72.738-66.008h-88.008v181.196h51.251v-48.923H2025.005z M1988.248,2839.817h36.757
	c13.978,0,21.486,10.871,21.486,22.779c0,11.907-7.25,22.262-21.486,22.262h-36.757V2839.817z M1813.524,2908.068l-88.786-112.514
	h-27.697v181.454h34.167v-122.351l95.258,122.351h21.227v-181.454h-34.17V2908.068z M1662.613,2943.359h-101.728v-40.9h98.104
	v-31.838h-98.104v-41.934h101.728v-33.133h-135.639c0,60.484,0,121.141,0,181.454h135.639V2943.359z M1501.089,2943.359h-101.728
	v-40.9h98.104v-31.838h-98.104v-41.934h101.728v-33.133H1365.45c0,60.484,0,121.141,0,181.454h135.639V2943.359z M1277.698,2827.392
	c21.484,0,31.062,14.538,31.062,29.121c0,14.582-9.318,29.12-31.062,29.12h-52.03v-58.241H1277.698z M1351.989,2974.68
	l-54.878-61.867c34.428-6.989,45.818-32.096,45.818-57.075c0-31.451-22.52-59.925-65.231-60.183c-28.732,0.258-57.465,0-86.199,0
	v181.454h34.169v-60.572h32.875l52.806,60.572h40.641V2974.68z M1160.954,2818.333c-18.638-18.379-42.97-27.697-67.302-27.697
	c-63.937,0-95.775,47.111-95.775,98.104c0,47.63,27.698,92.41,95.775,92.41c31.84,0,54.361-12.167,72.221-32.614v-76.362h-77.656
	v30.544h46.335v32.099c-14.236,11.388-26.664,14.495-40.9,14.495c-45.04,0-62.383-30.804-62.383-60.572
	c0-37.273,23.557-66.782,62.383-66.782c15.79,0,33.911,6.47,46.077,18.119L1160.954,2818.333z"/>
<path fill="#CDCDCD" d="M2789.131,3094.503h-44.406v-17.852h42.823v-13.898h-42.823v-18.303h44.406v-14.463h-59.209
	c0,26.4,0,52.878,0,79.206h59.209V3094.503z M2631.156,3029.987h-16.721l-23.954,61.655l-23.843-61.655h-16.721l32.881,79.545
	h15.478L2631.156,3029.987z M2417.59,3042.076c18.644,0,26.101,14.915,25.874,28.249c-0.224,12.993-7.23,27.003-25.874,27.003
	c-18.642,0-25.648-13.897-25.986-26.892C2391.264,3057.103,2398.948,3042.076,2417.59,3042.076z M2417.59,3028.517
	c-27.343,0-40.675,20.903-40.675,41.694c0,20.79,12.879,40.789,40.675,40.789c27.795,0,40.337-20.452,40.564-40.902
	C2458.381,3049.419,2444.821,3028.517,2417.59,3028.517z M2226.849,3029.987v79.206h55.592v-13.785h-40.675v-65.42H2226.849z
	 M2102.661,3094.503h-44.406v-17.852h42.823v-13.898h-42.823v-18.303h44.406v-14.463h-59.209c0,26.4,0,52.878,0,79.206h59.209
	V3094.503z M1915.309,3043.884c9.378,0,13.559,6.346,13.559,12.711c0,6.365-4.068,12.713-13.559,12.713h-22.71v-25.424H1915.309z
	 M1947.738,3108.175l-23.954-27.005c15.027-3.051,20-14.01,20-24.913c0-13.728-9.831-26.156-28.473-26.27
	c-12.542,0.114-25.084,0-37.626,0v79.206h14.916v-26.439h14.349l23.048,26.439h17.74V3108.175z M1758.351,3030.211v45.31
	c0,13.559-7.004,21.806-19.322,21.806c-12.316,0-20.45-7.57-20.45-21.806v-45.31h-14.802v45.31
	c0,23.841,16.157,35.366,35.141,35.366c19.886,0,34.236-11.977,34.236-35.366v-45.31H1758.351z M1562.526,3109.192h14.914v-65.646
	h25.084v-13.559c-22.937,0-42.259,0-65.083,0v13.559h25.084V3109.192z M1429.522,3080.38h-29.376l14.687-33.747L1429.522,3080.38z
	 M1442.177,3109.192h16.271l-35.48-79.206h-16.271l-35.479,79.206h16.158l6.779-14.914h41.355L1442.177,3109.192z M1260.926,3079.1
	l-38.757-49.114h-12.089v79.206h14.913v-53.408l41.582,53.408h9.265v-79.206h-14.914V3079.1z"/>
<defs>
	
		<filter id="Adobe_OpacityMaskFilter_2_" filterUnits="userSpaceOnUse" x="1115.621" y="1244.741" width="700.698" height="518.939">
		<feColorMatrix  type="matrix" values="1 0 0 0 0  0 1 0 0 0  0 0 1 0 0  0 0 0 1 0"/>
	</filter>
</defs>
<mask maskUnits="userSpaceOnUse" x="1115.621" y="1244.741" width="700.698" height="518.939" id="SVGID_13_">
	<g filter="url(#Adobe_OpacityMaskFilter_2_)">
		
			<linearGradient id="SVGID_14_" gradientUnits="userSpaceOnUse" x1="1450.349" y1="1549.1533" x2="1450.349" y2="1967.4908" gradientTransform="matrix(1 0 0 1 15.6209 -302.5534)">
			<stop  offset="0" style="stop-color:#FFFFFF"/>
			<stop  offset="1" style="stop-color:#000000"/>
		</linearGradient>
		<rect x="1115.621" y="1244.741" fill="url(#SVGID_14_)" width="700.698" height="518.94"/>
	</g>
</mask>
<path mask="url(#SVGID_13_)" fill-rule="evenodd" clip-rule="evenodd" fill="#CDCDCD" d="M1115.621,1763.68
	c62.555-59.822,322.618-288.214,700.698-344.726l-176.111-174.214C1465.345,1417.719,1290.481,1590.702,1115.621,1763.68"/>
<defs>
	
		<filter id="Adobe_OpacityMaskFilter_3_" filterUnits="userSpaceOnUse" x="2179.356" y="1244.741" width="718.853" height="533.341">
		<feColorMatrix  type="matrix" values="1 0 0 0 0  0 1 0 0 0  0 0 1 0 0  0 0 0 1 0"/>
	</filter>
</defs>
<mask maskUnits="userSpaceOnUse" x="2179.356" y="1244.741" width="718.853" height="533.341" id="SVGID_15_">
	<g filter="url(#Adobe_OpacityMaskFilter_3_)">
		
			<linearGradient id="SVGID_16_" gradientUnits="userSpaceOnUse" x1="2382.0381" y1="1547.2477" x2="2382.0381" y2="1965.5847" gradientTransform="matrix(1 0 0 1 156.7446 -300.6428)">
			<stop  offset="0" style="stop-color:#FFFFFF"/>
			<stop  offset="1" style="stop-color:#000000"/>
		</linearGradient>
		<rect x="2179.356" y="1244.741" fill="url(#SVGID_16_)" width="718.853" height="533.341"/>
	</g>
</mask>
<path mask="url(#SVGID_15_)" fill-rule="evenodd" clip-rule="evenodd" fill="#CDCDCD" d="M2359.065,1244.741l-179.709,177.758
	c219.439,37.037,462.329,141.559,718.853,355.583C2718.496,1600.302,2538.781,1422.521,2359.065,1244.741"/>
</svg>
