<?xml version="1.0" encoding="utf-8"?>
<!-- Generator: Adobe Illustrator 24.3.0, SVG Export Plug-In . SVG Version: 6.00 Build 0)  -->
<svg version="1.1" id="Layer_1" xmlns="http://www.w3.org/2000/svg" xmlns:xlink="http://www.w3.org/1999/xlink" x="0px" y="0px"
	 viewBox="305.393 278.85 28.417 23.875" enable-background="new 305.393 278.85 28.417 23.875" xml:space="preserve">
<path fill-rule="evenodd" clip-rule="evenodd" fill="#475E88" d="M341.064,291.052c0.473-0.004,0.93-0.013,1.376-0.016
	c0.433-0.004,0.856-0.006,1.27-0.01c0.401-0.006,0.794-0.008,1.176-0.014c0.374-0.002,0.735-0.004,1.094-0.004
	c0.008-0.02,0.019-0.034,0.034-0.047c-0.363,0-0.738,0.002-1.123,0.005c-0.393,0.003-0.795,0.005-1.207,0.008
	c-0.87,0.008-1.532-0.384-1.414-0.921c0.091-0.435,0.193-0.912,0.307-1.439c0.125-0.579,0.262-1.23,0.42-1.96
	c-0.671-0.082-1.371-0.167-2.098-0.258c-0.76-0.095-1.557-0.192-2.391-0.299c0.117,0.88,0.224,1.652,0.312,2.331
	c0.083,0.603,0.155,1.143,0.221,1.629C339.122,290.646,340.053,291.058,341.064,291.052L341.064,291.052z"/>
<path fill-rule="evenodd" clip-rule="evenodd" fill="#ED1B23" d="M348.161,288.102c0.002-0.442,0-0.872,0.002-1.29
	c0-0.409,0-0.807,0-1.193c0-0.378,0.003-0.745,0.003-1.103c0-0.351,0-0.693,0.007-1.027c-0.02-0.009-0.037-0.018-0.052-0.031
	c0,0.34-0.002,0.691-0.002,1.053c-0.003,0.366-0.007,0.746-0.007,1.132c-0.004,0.815-0.43,1.432-1,1.318
	c-0.465-0.092-0.97-0.196-1.527-0.307c-0.617-0.125-1.311-0.261-2.087-0.418c-0.096,0.629-0.193,1.285-0.298,1.966
	c-0.108,0.715-0.223,1.459-0.347,2.243c0.938-0.104,1.764-0.193,2.484-0.268c0.646-0.069,1.227-0.131,1.742-0.188
	C347.704,289.923,348.161,289.052,348.161,288.102L348.161,288.102z"/>
<path fill-rule="evenodd" clip-rule="evenodd" fill="#4DA391" d="M337.853,284.43c0,0.441,0,0.872,0,1.289
	c0,0.41-0.001,0.806-0.001,1.193c-0.003,0.378-0.003,0.746-0.003,1.104c-0.002,0.352,0,0.692-0.004,1.028
	c0.017,0.007,0.033,0.019,0.048,0.03c0.003-0.342,0.003-0.691,0.005-1.052c0.002-0.369,0.005-0.747,0.005-1.133
	c0.003-0.817,0.428-1.432,1.001-1.318c0.46,0.093,0.968,0.196,1.526,0.307c0.617,0.125,1.307,0.261,2.086,0.417
	c0.093-0.629,0.193-1.284,0.298-1.966c0.108-0.714,0.224-1.46,0.345-2.245c-0.939,0.103-1.763,0.194-2.483,0.269
	c-0.647,0.071-1.225,0.131-1.739,0.187C338.311,282.609,337.855,283.479,337.853,284.43L337.853,284.43z"/>
<path fill-rule="evenodd" clip-rule="evenodd" fill="#0094D9" d="M344.902,281.516c-0.474,0.005-0.93,0.01-1.375,0.014
	c-0.437,0.006-0.859,0.008-1.274,0.011c-0.401,0.005-0.792,0.008-1.174,0.01c-0.374,0.005-0.738,0.01-1.093,0.01
	c-0.008,0.013-0.022,0.031-0.031,0.045c0.363-0.001,0.737-0.005,1.119-0.006c0.392-0.002,0.795-0.006,1.205-0.008
	c0.871-0.007,1.532,0.382,1.419,0.924c-0.096,0.434-0.199,0.911-0.312,1.435c-0.124,0.582-0.263,1.232-0.418,1.964
	c0.668,0.083,1.37,0.168,2.096,0.258c0.765,0.095,1.557,0.192,2.393,0.299c-0.118-0.882-0.224-1.654-0.312-2.33
	c-0.083-0.604-0.154-1.146-0.22-1.631C346.847,281.922,345.915,281.507,344.902,281.516L344.902,281.516z"/>
</svg>
