<?xml version="1.0" encoding="utf-8"?>
<!-- Generator: Adobe Illustrator 24.3.0, SVG Export Plug-In . SVG Version: 6.00 Build 0)  -->
<svg version="1.1" xmlns="http://www.w3.org/2000/svg" xmlns:xlink="http://www.w3.org/1999/xlink" x="0px" y="0px"
	 viewBox="0 0 500 500" enable-background="new 0 0 500 500" xml:space="preserve">
<g id="Background_Complete">
</g>
<g id="Background_Simple" display="none">
	<path display="inline" fill="#F5F5F5" d="M99.501,98.768l1.382-3.192c11.652-26.906,36.838-45.625,65.814-47.761
		c3.725-0.275,7.47-0.281,11.204-0.003c26.887,1.997,52.33,18.62,65.23,42.619c7.587,14.114,11.491,31.029,23.629,41.39
		c15.797,13.485,39.092,10.771,59.426,7.324c20.335-3.447,43.654-6.102,59.392,7.452c9.857,8.489,14.457,21.857,15.55,34.891
		c2.894,34.509-16.763,68.427-45.028,87.83c-28.264,19.403-63.821,25.686-97.969,23.56c-47.837-2.978-95.648-22.655-127.731-58.793
		C98.318,197.948,84.123,144.653,99.501,98.768z"/>
	
		<ellipse transform="matrix(0.7071 -0.7071 0.7071 0.7071 58.0873 305.1536)" display="inline" fill="#F5F5F5" cx="397.397" cy="82.459" rx="30.821" ry="30.821"/>
</g>
<g id="Floor">
</g>
<g id="Lines">
</g>
<g id="Character">
	<g>
		<g>
			<path fill="#455A64" d="M30.161,247.024c0.471-15.217,0.289-69.794,0.229-84.642c-0.008-2.069,1.673-3.743,3.741-3.731
				l92.827,0.536c2.083,0.012,3.75,1.732,3.697,3.814l-2.115,82.819c-0.051,1.994-1.666,3.593-3.66,3.624l-90.943,1.418
				C31.812,250.897,30.095,249.148,30.161,247.024z"/>
		</g>
		<g>
			<g>
				<path fill="#263238" d="M291.679,195.466l23.262-22.561h3.784c0,0,21.86,28.026,20.879,30.128
					c-0.981,2.102-7.987,3.363-7.987,3.363l-0.28,7.707l-21.337,12.288l-1.083-3.714l-4.764,0.955c0,0-6.866-9.108-6.866-19.478
					S291.679,195.466,291.679,195.466z"/>
			</g>
			<g>
				<path fill="#FF725E" d="M305.234,186.985c0.42-0.14,11.389-15.062,11.809-15.342c0.42-0.28,15.134,2.382,23.962,15.695
					c8.828,13.312,4.905,17.376,3.363,17.656c-1.541,0.28-34.612,1.121-37.134-0.701
					C304.711,202.472,305.234,186.985,305.234,186.985z"/>
			</g>
			<g>
				<path fill="#FFFFFF" d="M338.534,184.047c0,0-6.327,3.55-5.4,6.045c0.927,2.495,7.375,14.23,13.104,12.908
					c0.422-0.097,0.622-1.695,0.341-3.352c-0.759-4.471-2.853-8.391-5.503-12.071L338.534,184.047z"/>
			</g>
			<g opacity="0.3">
				<path d="M307.826,182.82c0.214-0.143,3.493-3.921,6.772-3.351c3.279,0.57,11.121,5.302,15.399,9.059
					c4.277,3.757,4.001,4.857,4.001,4.857s-13.411-9.069-17.617-10.423C312.175,181.608,307.826,182.82,307.826,182.82z"/>
			</g>
			<g>
				<g>
					<path fill="#263238" d="M338.534,184.047c0.029-0.022,0.238,0.204,0.592,0.631c0.359,0.424,0.849,1.06,1.44,1.856
						c1.168,1.601,2.725,3.874,4.085,6.599c0.687,1.356,1.202,2.729,1.639,3.952c0.469,1.284,0.513,2.497,0.576,3.481
						c0.07,0.991-0.026,1.851-0.311,2.364c-0.274,0.515-0.567,0.68-0.579,0.661c-0.035-0.031,0.2-0.247,0.394-0.743
						c0.205-0.495,0.242-1.278,0.128-2.254c-0.107-0.977-0.197-2.159-0.656-3.337c-0.469-1.231-0.98-2.553-1.659-3.894
						c-1.339-2.684-2.834-4.972-3.92-6.619C339.17,185.101,338.47,184.095,338.534,184.047z"/>
				</g>
			</g>
		</g>
		<g>
			<path fill="#263238" d="M99.821,290.698c0,0-21.836,42.6-32.186,49.73l1.61,3.22c0,0,0.905,0.69,14.483-10.58
				c13.578-11.27,20.943-24.628,27.379-28.751c6.435-4.123,10.12-5.52,10.12-5.52L99.821,290.698z"/>
		</g>
		<g>
			<path fill="#263238" d="M174.311,325.296c-2.086,0-10.752,0-10.752,0l23.51,17.289l1.569,4.928l-8.982,3.336l-0.85,16.814
				c0,0,10.495,16.606,11.458,16.927c0.963,0.321,23.721-0.498,23.721-0.498l4.881-16.709l1.185-22.829
				c0,0-33.219-21.344-33.701-21.344C185.866,323.21,174.311,325.296,174.311,325.296z"/>
		</g>
		<g>
			<g>
				
					<ellipse transform="matrix(0.2312 -0.9729 0.9729 0.2312 -248.2383 407.0926)" fill="#455A64" cx="133.46" cy="360.614" rx="46.076" ry="46.076"/>
			</g>
			<g>
				<circle fill="#E0E0E0" cx="133.46" cy="360.614" r="26.308"/>
			</g>
			<g>
				<circle fill="#263238" cx="133.46" cy="360.614" r="15.013"/>
			</g>
		</g>
		<g>
			<path fill="#263238" d="M107.613,312.618c1.653-2.233,2.66,10.418,5.561,13.319c2.901,2.901,12.53,0.233,25.145,2.418
				c20.118,3.485,26.026,14.319,30.734,19.793c1.14,1.326,2.955,1.855,4.642,1.395l15.639-4.264c0,0-9.429-23.21-35.541-30.947
				C127.68,306.595,107.613,312.618,107.613,312.618z"/>
		</g>
		<g>
			<circle fill="#455A64" cx="391.99" cy="360.614" r="48.285"/>
		</g>
		<g>
			<circle fill="#E0E0E0" cx="391.99" cy="360.614" r="27.569"/>
		</g>
		<g>
			<path fill="#263238" d="M235.887,375.438c0.505,0.031,7.719,10.558,7.719,10.558h4.764v3.911c0,0,16.56-0.736,19.962-1.189
				c3.403-0.454,7.486-2.495,7.486-2.495s26.54-2.11,33.573-3.55c7.032-1.44,13.161-5.474,13.161-5.474s-82.802-7.536-83.483-7.082
				C238.388,370.571,235.887,375.438,235.887,375.438z"/>
		</g>
		<g>
			<path fill="#263238" d="M308.954,227.286c0.384,2.305,13.83,33.421,13.83,33.421l-9.988,6.531l17.287,29.964l-10.564,45.714
				c0,0-29.004,0.384-56.279-8.451l-17.671-32.653c0,0,4.226-10.756,5.378-22.281c0,0,6.915-1.921,7.683-6.915
				c0.768-4.994-4.61-12.293-4.61-12.293s-25.354-11.141-82.593-16.135c0,0-35.727-6.531-38.031-6.146
				c-2.305,0.384-6.146,8.328-6.146,8.328s-31.501,0.123-34.574,11.648c0,0-3.073,8.451,32.269,25.354s74.526,31.885,74.526,31.885
				s3.073,15.366,8.836,18.824c5.762,3.457,64.538,23.049,86.051,21.897c21.513-1.152,28.043-4.226,41.105-12.677
				c13.061-8.451,27.659-33.806,31.885-42.641c4.226-8.836-14.598-17.671-26.123-31.501c-11.525-13.83-26.891-46.483-26.891-46.483
				L308.954,227.286z"/>
		</g>
		<g opacity="0.3">
			<path d="M343.705,364.988c0,0,17.478-15.632,22.283-20.107c4.805-4.475,5.175-5.769,5.175-5.769l11.109,10.746l2.207-3.072
				l-15.401-15.785L342.7,357.04l1.005,6.839"/>
		</g>
		<g>
			<path fill="#E80000" d="M389.648,297.647c0,0,24.151,3.45,36.341,17.941c12.19,14.491,8.74,15.871,8.74,15.871
				s-18.171-4.83-28.981,0s-10.58,13.801-10.58,13.801l-9.2,4.6l-18.015-20.241l15.025-31.971H389.648z"/>
		</g>
		<g opacity="0.3">
			<path d="M373.003,335.266c0,0,4.693-8.408,9.124-15.577c4.866-7.872,13.339-20.837,13.339-20.837l-7.045-2.069l-19.343,34.219
				L373.003,335.266z"/>
		</g>
		<g>
			<path fill="#E80000" d="M334.446,211.164c1.61,0,9.2,3.45,18.171,12.65c8.97,9.2,55.892,62.562,56.122,66.933
				c0.008,0.156,0.012,0.31,0.011,0.461c-0.02,3.593-3.07,6.439-6.664,6.439h-8.068l-5.98,4.14c0,0-14.721,34.187-40.942,54.24
				c0,0-3.91,3.953-5.98,8.783c-2.07,4.83-4.14,10.81-6.67,11.96c-2.53,1.15-112.934,0.23-114.314-3.45
				c-1.38-3.68-3.45-10.81-3.91-15.411c-0.46-4.6-10.811-16.101-23.001-21.621c-12.191-5.52-97.754-45.082-98.904-49.682
				c-1.15-4.6-7.118-22.765-1.144-29.898c5.974-7.133,98.631,37.491,119.828,57.039c0.535,0.493,26.911,24.841,26.911,24.841
				s49.222,8.74,51.062,9.2c1.84,0.46,35.881-0.92,35.881-0.92l13.571-27.371l9.66-21.621l-23.921-38.871
				c0,0-13.928-36.329-12.88-36.329C314.332,222.676,334.446,211.164,334.446,211.164z"/>
		</g>
		<g>
			<g>
				<polygon fill="#263238" points="99.687,331.103 88.018,356.027 156.879,384.59 166.539,361.359 				"/>
			</g>
			<g>
				<polygon fill="#263238" points="84.672,334.531 96.545,337.814 91.669,348.23 82.061,345.629 				"/>
			</g>
			<g>
				<polygon fill="#263238" points="163.32,369.102 197.246,382.541 227.259,382.541 227.259,375.395 233.526,375.395 
					233.526,387.379 218.354,387.379 218.354,389.907 197.796,389.907 160.209,376.582 				"/>
			</g>
		</g>
		<g>
			<path fill="#FFFFFF" d="M93.249,282.667c0.051,0.191,11.85,6.813,16.689,7.109c4.838,0.296,6.714-2.863,7.8-5.233
				c1.086-2.37,2.271-6.418,2.271-6.418s-27.116-21.126-27.402-20.654c-1.976,3.262-2.2,4.299-2.197,10.976
				C90.411,271.229,93.093,282.644,93.249,282.667z"/>
		</g>
		<g opacity="0.3">
			<path d="M200.379,340.306c-0.529-0.438,49.919,18.059,53.998,19.3c4.079,1.242,8.336,14.189,8.336,14.189
				s-4.966-9.755-11.351-12.238C244.977,359.074,208.989,347.432,200.379,340.306z"/>
		</g>
		<g opacity="0.3">
			<path d="M340.453,259.288l42.786,21.89c0,0-7.092-12.324-26.901-21.649c-11.728-5.521-31.126-15.545-31.126-15.545l0.938,1.643
				C329.489,251.474,334.459,256.221,340.453,259.288z"/>
		</g>
		<g>
			<g>
				<path fill="#455A64" d="M250.947,279.531c0.001,0.009-0.115,0.034-0.344,0.074c-0.256,0.041-0.591,0.096-1.016,0.165
					c-0.927,0.136-2.24,0.328-3.915,0.574c-3.402,0.482-8.329,1.153-14.425,1.92c-6.097,0.762-13.361,1.641-21.454,2.388
					c-2.025,0.176-4.098,0.367-6.225,0.487c-1.062,0.075-2.137,0.132-3.225,0.16c-1.073,0.043-2.217,0.069-3.318-0.128
					c-4.426-0.706-8.724-2.411-13.051-4.212c-8.635-3.705-16.535-7.91-23.664-11.808c-7.119-3.922-13.432-7.625-18.694-10.798
					c-2.63-1.589-4.997-3.046-7.063-4.346c-2.069-1.297-3.794-2.537-5.024-3.755c-1.244-1.195-1.965-2.412-2.111-3.326
					c-0.166-0.932,0.233-1.372,0.227-1.343c0.032-0.004-0.317,0.434-0.124,1.324c0.173,0.873,0.899,2.041,2.149,3.199
					c1.237,1.18,2.958,2.383,5.036,3.653c2.079,1.275,4.458,2.71,7.099,4.277c5.283,3.131,11.611,6.799,18.736,10.694
					c7.133,3.87,15.033,8.058,23.637,11.749c4.304,1.794,8.597,3.492,12.918,4.186c1.079,0.193,2.143,0.169,3.232,0.129
					c1.08-0.026,2.151-0.08,3.21-0.152c2.119-0.115,4.191-0.3,6.213-0.469c8.085-0.72,15.352-1.56,21.452-2.275
					c6.074-0.738,11.001-1.337,14.443-1.755c1.681-0.204,2.998-0.364,3.928-0.477c0.428-0.047,0.766-0.085,1.023-0.113
					C250.827,279.53,250.945,279.522,250.947,279.531z"/>
			</g>
		</g>
		<g>
			<g>
				<path fill="#455A64" d="M254.042,269.617c0.003,0.009-0.103,0.047-0.311,0.114c-0.236,0.072-0.543,0.166-0.93,0.285
					c-0.82,0.244-2.025,0.621-3.614,0.967c-3.158,0.752-7.814,1.578-13.628,1.831c-1.452,0.099-2.976,0.062-4.563,0.092
					c-1.586-0.052-3.239-0.058-4.944-0.191c-3.413-0.203-7.05-0.598-10.842-1.229c-7.592-1.224-15.795-3.36-24.208-6.143
					c-8.423-2.773-16.295-5.83-23.471-8.542c-7.17-2.739-13.661-5.081-19.163-6.94c-2.74-0.963-5.191-1.953-7.225-3.064
					c-2.043-1.092-3.661-2.299-4.817-3.454c-1.179-1.139-1.844-2.237-2.301-2.958c-0.18-0.363-0.324-0.652-0.434-0.873
					c-0.095-0.198-0.139-0.301-0.131-0.304c0.081-0.06,0.673,1.73,3.007,3.99c1.162,1.118,2.776,2.285,4.812,3.342
					c2.027,1.077,4.469,2.035,7.209,2.974c5.51,1.812,12.034,4.125,19.211,6.839c7.188,2.688,15.059,5.729,23.465,8.497
					c8.397,2.777,16.565,4.918,24.123,6.164c3.775,0.642,7.395,1.05,10.792,1.271c1.697,0.141,3.342,0.158,4.921,0.22
					c1.58-0.019,3.098,0.03,4.544-0.058c5.79-0.205,10.435-0.971,13.598-1.661c1.591-0.315,2.802-0.659,3.63-0.87
					c0.392-0.098,0.704-0.175,0.943-0.235C253.929,269.63,254.04,269.608,254.042,269.617z"/>
			</g>
		</g>
		<g>
			<g>
				<path fill="#455A64" d="M196.887,285.307c0.008-0.016,0.176,0.049,0.487,0.188c0.362,0.169,0.808,0.377,1.349,0.629
					c1.168,0.551,2.857,1.35,4.974,2.271c4.219,1.873,10.139,4.255,16.788,6.58c6.656,2.313,12.774,4.129,17.243,5.284
					c2.23,0.595,4.05,1.019,5.307,1.314c0.58,0.138,1.058,0.253,1.447,0.345c0.33,0.085,0.502,0.138,0.498,0.155
					c-0.003,0.018-0.182-0.001-0.518-0.052c-0.394-0.067-0.88-0.15-1.469-0.25c-1.272-0.234-3.109-0.604-5.355-1.155
					c-4.503-1.067-10.654-2.831-17.325-5.15c-6.664-2.331-12.579-4.773-16.769-6.736c-2.102-0.966-3.771-1.818-4.913-2.425
					c-0.524-0.288-0.955-0.525-1.306-0.717C197.03,285.419,196.879,285.323,196.887,285.307z"/>
			</g>
		</g>
		<g>
			<g>
				<path fill="#455A64" d="M242.212,337.133c-0.008,0.005-0.091-0.118-0.245-0.362c-0.164-0.266-0.387-0.627-0.673-1.091
					c-0.598-0.986-1.457-2.401-2.556-4.213c-2.233-3.648-5.435-8.954-9.844-15.198c-2.209-3.117-4.74-6.456-7.703-9.831
					c-2.956-3.375-6.349-6.79-10.282-9.947c-3.917-3.174-8.393-6.047-13.275-8.557c-4.879-2.52-10.14-4.712-15.612-6.72
					c-21.952-7.959-42.563-12.917-57.573-15.806c-7.511-1.444-13.627-2.407-17.86-3.023c-2.097-0.302-3.735-0.537-4.876-0.702
					c-0.538-0.08-0.959-0.143-1.268-0.19c-0.285-0.046-0.431-0.073-0.43-0.082c0.001-0.009,0.149,0.001,0.436,0.029
					c0.311,0.034,0.733,0.08,1.274,0.138c1.118,0.134,2.772,0.308,4.891,0.605c4.244,0.555,10.373,1.463,17.9,2.862
					c15.042,2.799,35.694,7.706,57.684,15.679c5.485,2.013,10.766,4.216,15.667,6.755c4.905,2.528,9.407,5.43,13.343,8.637
					c3.952,3.188,7.351,6.634,10.306,10.036c2.961,3.402,5.483,6.765,7.678,9.902c4.381,6.286,7.536,11.625,9.717,15.306
					c1.063,1.834,1.894,3.266,2.473,4.264c0.267,0.474,0.476,0.845,0.629,1.117C242.152,336.997,242.219,337.129,242.212,337.133z"
					/>
			</g>
		</g>
		<g>
			<circle fill="#263238" cx="391.99" cy="360.614" r="15.733"/>
		</g>
		<g>
			<g>
				<path fill="#263238" d="M382.931,280.867c-0.014,0.011-0.175-0.172-0.466-0.531c-0.297-0.354-0.701-0.901-1.266-1.57
					c-1.104-1.358-2.758-3.281-4.976-5.484c-2.212-2.208-5.045-4.638-8.429-7.006c-3.389-2.36-7.338-4.633-11.652-6.669
					c-8.672-4.05-16.4-7.979-21.971-10.853c-2.738-1.433-4.972-2.602-6.579-3.443c-0.734-0.397-1.324-0.716-1.776-0.961
					c-0.403-0.225-0.611-0.351-0.603-0.367c0.008-0.016,0.232,0.078,0.651,0.273c0.463,0.222,1.068,0.513,1.82,0.874
					c1.625,0.805,3.884,1.924,6.653,3.295c5.615,2.79,13.358,6.663,22.028,10.711c4.337,2.046,8.306,4.348,11.705,6.746
					c3.394,2.407,6.223,4.884,8.415,7.139c2.198,2.249,3.815,4.217,4.874,5.618c0.542,0.69,0.921,1.259,1.191,1.633
					C382.814,280.652,382.946,280.856,382.931,280.867z"/>
			</g>
		</g>
		<g>
			<path fill="#FFFFFF" d="M363.782,272.011c-1.252,0.015-1.948,1.451-1.168,2.431c2.199,2.764,7.052,7.65,15.559,10.56
				c12.361,4.229,14.262,2.051,12.961,0.75C389.94,284.559,374.012,271.892,363.782,272.011z"/>
		</g>
		<g>
			<g>
				<path fill="#263238" d="M93.394,283.204c-0.035,0.008-0.154-0.346-0.338-0.992c-0.184-0.646-0.435-1.584-0.733-2.746
					c-0.582-2.322-1.479-5.523-1.959-9.175c-0.245-1.822-0.391-3.576-0.322-5.183c0.068-1.605,0.351-3.038,0.736-4.191
					c0.387-1.153,0.858-2.026,1.235-2.587c0.377-0.563,0.642-0.831,0.664-0.814c0.088,0.053-0.883,1.227-1.548,3.51
					c-0.33,1.135-0.568,2.533-0.609,4.098c-0.041,1.564,0.116,3.294,0.358,5.096c0.474,3.609,1.312,6.82,1.803,9.167
					c0.252,1.172,0.447,2.122,0.571,2.781C93.377,282.828,93.429,283.196,93.394,283.204z"/>
			</g>
		</g>
		<g opacity="0.3">
			<path d="M128.558,285.088l66.454,35.239c0,0,0.334,0.917-5.678-1.146C183.321,317.118,137.059,293.859,128.558,285.088z"/>
		</g>
		<g>
			<path fill="#263238" d="M44.844,249.153l4.507,4.9h55.859c0,0,9.986-5.997,10.604-6.007
				C116.433,248.037,44.844,249.153,44.844,249.153z"/>
		</g>
		<g>
			<g>
				<g>
					<g>
						<g>
							<g>
								<g>
									<g>
										<g>
											<g>
												<g>
													<g>
														<g>
															<g>
																<path fill="#FFBF9D" d="M261.56,91.363c2.767-10.489-3.953-18.493-14.186-22.093l-1.017-0.358
																	c-11.189-3.218-19.204,1.637-22.112,12.91l-11.26,37.067l-0.529,1.806l23.514,13.975l3.239-9.318
																	c0,0,11.116,2.07,14.955-8.421C256.019,111.863,258.987,101.119,261.56,91.363z"/>
															</g>
														</g>
													</g>
												</g>
											</g>
										</g>
									</g>
								</g>
							</g>
						</g>
					</g>
				</g>
				<g>
					<g>
						<g>
							<g>
								<g>
									<g>
										<g>
											<g>
												<g>
													<g>
														<g>
															<g>
																<g>
																	<g>
																		<g>
																			<g>
																				<g>
																					<path fill="#263238" d="M255.216,100.49c-0.251,0.804-1.14,1.255-1.985,1.007
																						c-0.844-0.247-1.325-1.098-1.074-1.903c0.252-0.805,1.14-1.256,1.984-1.009
																						C254.986,98.833,255.467,99.685,255.216,100.49z"/>
																				</g>
																			</g>
																		</g>
																	</g>
																</g>
															</g>
														</g>
													</g>
												</g>
											</g>
										</g>
									</g>
								</g>
							</g>
						</g>
					</g>
				</g>
				<g>
					<g>
						<g>
							<g>
								<g>
									<g>
										<g>
											<g>
												<g>
													<g>
														<g>
															<g>
																<g>
																	<g>
																		<g>
																			<g>
																				<g>
																					<g>
																						<path fill="#263238" d="M257.481,95.721c-0.255,0.131-1.098-1.114-2.719-1.68
																							c-1.611-0.588-3.092-0.173-3.198-0.433c-0.055-0.118,0.26-0.406,0.909-0.6
																							c0.641-0.196,1.639-0.255,2.646,0.104c1.007,0.36,1.724,1.03,2.078,1.582
																							C257.56,95.252,257.604,95.666,257.481,95.721z"/>
																					</g>
																				</g>
																			</g>
																		</g>
																	</g>
																</g>
															</g>
														</g>
													</g>
												</g>
											</g>
										</g>
									</g>
								</g>
							</g>
						</g>
					</g>
				</g>
				<g>
					<g>
						<g>
							<g>
								<g>
									<g>
										<g>
											<g>
												<g>
													<g>
														<g>
															<g>
																<g>
																	<g>
																		<g>
																			<g>
																				<g>
																					<path fill="#263238" d="M240.82,95.716c-0.251,0.804-1.14,1.255-1.985,1.007
																						c-0.843-0.247-1.325-1.098-1.074-1.903c0.252-0.804,1.141-1.256,1.984-1.009
																						C240.59,94.059,241.072,94.911,240.82,95.716z"/>
																				</g>
																			</g>
																		</g>
																	</g>
																</g>
															</g>
														</g>
													</g>
												</g>
											</g>
										</g>
									</g>
								</g>
							</g>
						</g>
					</g>
				</g>
				<g>
					<g>
						<g>
							<g>
								<g>
									<g>
										<g>
											<g>
												<g>
													<g>
														<g>
															<g>
																<g>
																	<g>
																		<g>
																			<g>
																				<g>
																					<g>
																						<path fill="#263238" d="M241.457,90.422c-0.256,0.13-1.1-1.115-2.72-1.68
																							c-1.61-0.588-3.092-0.173-3.198-0.434c-0.055-0.118,0.258-0.406,0.91-0.6
																							c0.641-0.196,1.638-0.255,2.646,0.104c1.007,0.36,1.725,1.03,2.079,1.582
																							C241.535,89.951,241.58,90.366,241.457,90.422z"/>
																					</g>
																				</g>
																			</g>
																		</g>
																	</g>
																</g>
															</g>
														</g>
													</g>
												</g>
											</g>
										</g>
									</g>
								</g>
							</g>
						</g>
					</g>
				</g>
				<g>
					<g>
						<g>
							<g>
								<g>
									<g>
										<g>
											<g>
												<g>
													<g>
														<g>
															<g>
																<g>
																	<g>
																		<g>
																			<g>
																				<g>
																					<path fill="#263238" d="M243.108,104.499c0.025-0.095,1.093,0.085,2.797,0.451
																						c0.428,0.103,0.849,0.159,1.018-0.099c0.202-0.264,0.186-0.771,0.155-1.323
																						c-0.037-1.137-0.074-2.329-0.115-3.579c-0.121-5.081-0.052-9.199,0.152-9.203
																						c0.205-0.003,0.468,4.113,0.589,9.193c0.02,1.249,0.04,2.441,0.057,3.58c-0.009,0.525,0.073,1.153-0.357,1.698
																						c-0.22,0.27-0.603,0.387-0.893,0.365c-0.294-0.012-0.528-0.09-0.736-0.149
																						C244.102,104.944,243.082,104.593,243.108,104.499z"/>
																				</g>
																			</g>
																		</g>
																	</g>
																</g>
															</g>
														</g>
													</g>
												</g>
											</g>
										</g>
									</g>
								</g>
							</g>
						</g>
					</g>
				</g>
				<g>
					<g>
						<g>
							<g>
								<g>
									<g>
										<g>
											<g>
												<g>
													<g>
														<g>
															<g>
																<g>
																	<g>
																		<g>
																			<g>
																				<g>
																					<path fill="#263238" d="M237.948,103.942c0.269,0.077-0.346,1.836,0.719,3.613
																						c1.062,1.78,3.005,2.242,2.932,2.493c-0.015,0.119-0.538,0.194-1.336-0.062
																						c-0.785-0.246-1.83-0.894-2.482-1.981c-0.648-1.089-0.684-2.248-0.49-2.99
																						C237.482,104.256,237.831,103.889,237.948,103.942z"/>
																				</g>
																			</g>
																		</g>
																	</g>
																</g>
															</g>
														</g>
													</g>
												</g>
											</g>
										</g>
									</g>
								</g>
							</g>
						</g>
					</g>
				</g>
				<g>
					<g>
						<g>
							<g>
								<g>
									<g>
										<g>
											<g>
												<g>
													<g>
														<g>
															<g>
																<g>
																	<path fill="#263238" d="M244.109,84.223c-0.315,0.384-1.858-0.394-3.838-0.833c-1.972-0.479-3.7-0.462-3.813-0.946
																		c-0.046-0.229,0.367-0.549,1.137-0.757c0.764-0.209,1.886-0.269,3.071,0.006c1.184,0.277,2.165,0.825,2.758,1.35
																		C244.022,83.569,244.251,84.038,244.109,84.223z"/>
																</g>
															</g>
														</g>
													</g>
												</g>
											</g>
										</g>
									</g>
								</g>
							</g>
						</g>
					</g>
				</g>
				<g>
					<g>
						<g>
							<g>
								<g>
									<g>
										<g>
											<g>
												<g>
													<g>
														<g>
															<g>
																<g>
																	<path fill="#263238" d="M259.332,91.152c-0.414,0.268-1.395-0.507-2.73-0.997c-1.318-0.537-2.564-0.625-2.69-1.101
																		c-0.049-0.227,0.259-0.533,0.878-0.706c0.611-0.175,1.529-0.171,2.441,0.182c0.911,0.354,1.593,0.968,1.927,1.509
																		C259.499,90.583,259.521,91.016,259.332,91.152z"/>
																</g>
															</g>
														</g>
													</g>
												</g>
											</g>
										</g>
									</g>
								</g>
							</g>
						</g>
					</g>
				</g>
				<g>
					<g>
						<g>
							<g>
								<g>
									<g>
										<g>
											<g>
												<g>
													<g>
														<g>
															<g>
																<path fill="#FFBF9D" d="M222.33,92.674c0.506-1.65-0.444-3.427-2.118-3.843c-2.031-0.505-4.611-0.158-5.91,3.948
																	c-2.305,7.285,5.484,8.097,5.563,7.892C219.918,100.531,221.392,95.731,222.33,92.674z"/>
															</g>
														</g>
													</g>
												</g>
											</g>
										</g>
									</g>
								</g>
							</g>
						</g>
					</g>
				</g>
				<g>
					<g>
						<g>
							<g>
								<g>
									<g>
										<g>
											<g>
												<g>
													<g>
														<g>
															<g>
																<path fill="#FF9A6C" d="M219.147,97.428c-0.025-0.033-0.155,0.049-0.401,0.079c-0.239,0.03-0.62-0.018-0.955-0.281
																	c-0.68-0.526-0.942-1.953-0.561-3.277c0.191-0.669,0.53-1.256,0.93-1.704c0.391-0.463,0.854-0.726,1.263-0.672
																	c0.414,0.032,0.615,0.351,0.639,0.585c0.033,0.234-0.059,0.365-0.024,0.39c0.014,0.025,0.195-0.073,0.232-0.392
																	c0.015-0.154-0.016-0.353-0.143-0.547c-0.13-0.198-0.364-0.352-0.643-0.408c-0.574-0.139-1.243,0.218-1.683,0.71
																	c-0.471,0.485-0.867,1.14-1.082,1.891c-0.418,1.483-0.101,3.094,0.856,3.732c0.47,0.296,0.946,0.277,1.222,0.175
																	C219.078,97.6,219.168,97.449,219.147,97.428z"/>
															</g>
														</g>
													</g>
												</g>
											</g>
										</g>
									</g>
								</g>
							</g>
						</g>
					</g>
				</g>
			</g>
		</g>
		<g>
			<g>
				<g>
					<g>
						<g>
							<g>
								<g>
									<g>
										<g>
											<g>
												<g>
													<g>
														<g>
															<g>
																<g>
																	<g>
																		<g>
																			<g>
																				<g>
																					<g>
																						<g>
																							<g>
																								<path fill="#455A64" d="M272.99,299.068l-7.221,35.752l47.038,9.629c0.606-4.301-21.96-17.804-21.96-17.804
																									l5.622-22.708L272.99,299.068z"/>
																							</g>
																						</g>
																					</g>
																				</g>
																			</g>
																		</g>
																	</g>
																</g>
															</g>
														</g>
													</g>
												</g>
											</g>
										</g>
									</g>
								</g>
							</g>
						</g>
					</g>
				</g>
			</g>
			<g opacity="0.6">
				<g>
					<g>
						<g>
							<g>
								<g>
									<g>
										<g>
											<g>
												<g>
													<g>
														<g>
															<g>
																<g>
																	<g>
																		<g>
																			<g>
																				<g>
																					<g>
																						<g>
																							<g>
																								<g>
																									<path fill="#FFFFFF" d="M276.703,321.742c-0.959,0.049-1.789,0.887-1.758,1.799
																										c0.031,0.912,0.939,1.736,1.899,1.704c0.96-0.033,1.99-1.01,1.851-1.914
																										c-0.138-0.905-1.259-1.819-2.179-1.569"/>
																								</g>
																							</g>
																						</g>
																					</g>
																				</g>
																			</g>
																		</g>
																	</g>
																</g>
															</g>
														</g>
													</g>
												</g>
											</g>
										</g>
									</g>
								</g>
							</g>
						</g>
					</g>
				</g>
			</g>
			<g opacity="0.6">
				<g>
					<g>
						<g>
							<g>
								<g>
									<g>
										<g>
											<g>
												<g>
													<g>
														<g>
															<g>
																<g>
																	<g>
																		<g>
																			<g>
																				<g>
																					<g>
																						<g>
																							<g>
																								<path fill="#FFFFFF" d="M265.769,334.82l0.877-3.574l44.772,10.568c0,0,1.916,1.289,1.39,2.634
																									L265.769,334.82z"/>
																							</g>
																						</g>
																					</g>
																				</g>
																			</g>
																		</g>
																	</g>
																</g>
															</g>
														</g>
													</g>
												</g>
											</g>
										</g>
									</g>
								</g>
							</g>
						</g>
					</g>
				</g>
			</g>
			<g>
				<g>
					<g>
						<g>
							<g>
								<g>
									<g>
										<g>
											<g>
												<g>
													<g>
														<g>
															<g>
																<g>
																	<g>
																		<g>
																			<g>
																				<g>
																					<g>
																						<g>
																							<g>
																								<g>
																									<path fill="#263238" d="M290.903,326.735c-0.053,0.215-1.221,0.078-2.496,0.545
																										c-1.289,0.434-2.066,1.255-2.26,1.126c-0.203-0.085,0.409-1.312,1.963-1.851
																										C289.659,326.003,290.994,326.546,290.903,326.735z"/>
																								</g>
																							</g>
																						</g>
																					</g>
																				</g>
																			</g>
																		</g>
																	</g>
																</g>
															</g>
														</g>
													</g>
												</g>
											</g>
										</g>
									</g>
								</g>
							</g>
						</g>
					</g>
				</g>
			</g>
			<g>
				<g>
					<g>
						<g>
							<g>
								<g>
									<g>
										<g>
											<g>
												<g>
													<g>
														<g>
															<g>
																<g>
																	<g>
																		<g>
																			<g>
																				<g>
																					<g>
																						<g>
																							<g>
																								<g>
																									<path fill="#263238" d="M295.89,329.828c0.009,0.221-1.063,0.386-2.033,1.145
																										c-0.994,0.73-1.398,1.682-1.624,1.626c-0.223-0.01-0.118-1.313,1.108-2.233
																										C294.558,329.435,295.928,329.62,295.89,329.828z"/>
																								</g>
																							</g>
																						</g>
																					</g>
																				</g>
																			</g>
																		</g>
																	</g>
																</g>
															</g>
														</g>
													</g>
												</g>
											</g>
										</g>
									</g>
								</g>
							</g>
						</g>
					</g>
				</g>
			</g>
			<g>
				<g>
					<g>
						<g>
							<g>
								<g>
									<g>
										<g>
											<g>
												<g>
													<g>
														<g>
															<g>
																<g>
																	<g>
																		<g>
																			<g>
																				<g>
																					<g>
																						<g>
																							<g>
																								<g>
																									<path fill="#263238" d="M297.605,335.98c-0.218,0.003-0.313-1.146,0.524-2.213
																										c0.829-1.074,2.009-1.321,2.069-1.12c0.093,0.205-0.737,0.7-1.409,1.587
																										C298.093,335.104,297.838,336.006,297.605,335.98z"/>
																								</g>
																							</g>
																						</g>
																					</g>
																				</g>
																			</g>
																		</g>
																	</g>
																</g>
															</g>
														</g>
													</g>
												</g>
											</g>
										</g>
									</g>
								</g>
							</g>
						</g>
					</g>
				</g>
			</g>
			<g>
				<g>
					<g>
						<g>
							<g>
								<g>
									<g>
										<g>
											<g>
												<g>
													<g>
														<g>
															<g>
																<g>
																	<g>
																		<g>
																			<g>
																				<g>
																					<g>
																						<g>
																							<g>
																								<g>
																									<path fill="#263238" d="M291.904,322.216c-0.137,0.178-1.129-0.337-2.445-0.519
																										c-1.312-0.208-2.408-0.003-2.489-0.213c-0.1-0.184,1.053-0.785,2.6-0.55
																										C291.118,321.158,292.052,322.07,291.904,322.216z"/>
																								</g>
																							</g>
																						</g>
																					</g>
																				</g>
																			</g>
																		</g>
																	</g>
																</g>
															</g>
														</g>
													</g>
												</g>
											</g>
										</g>
									</g>
								</g>
							</g>
						</g>
					</g>
				</g>
			</g>
		</g>
		<g opacity="0.3">
			<path d="M185.898,258.241c0,0,11.97,9.628,36.768,10.582c24.798,0.954,33.377-5.291,33.377-5.291l-2.857-3.484L185.898,258.241z"
				/>
		</g>
		<g>
			<g>
				<path fill="#263238" d="M226.164,221.53c2.297,0.383,57.286,1.269,69.758,2.225c12.472,0.956,16.824,4.094,19.626,10.874
					c2.801,6.78,1.262,18.328-3.479,29.031c-4.741,10.703-18.76,59.159-18.76,59.159l-25.849-5.926c0,0,7.708-44.793,12.303-53.233
					c4.594-8.44,4.594-8.44,4.594-8.44s-25.643,8.411-44.785,9.177c-19.142,0.766-31.357,0.139-38.462-5.859
					c-7.105-5.998-18.973-11.741-18.59-29.352L226.164,221.53z"/>
			</g>
			<g>
				<g>
					<path fill="#455A64" d="M297.127,245.461c0.042,0.06-0.735,0.683-2.01,1.66c-1.424,1.082-3.121,2.371-4.996,3.795
						c-1.874,1.428-3.568,2.719-4.991,3.803c-1.282,0.969-2.09,1.551-2.136,1.494c-0.045-0.055,0.681-0.738,1.906-1.781
						c1.225-1.044,2.952-2.443,4.906-3.931c1.954-1.486,3.763-2.778,5.096-3.68C296.235,245.921,297.087,245.403,297.127,245.461z"
						/>
				</g>
			</g>
			<g>
				<g>
					<path fill="#455A64" d="M296.546,249.519c0.065,0.128-3.255,1.954-7.416,4.077c-4.162,2.124-7.588,3.742-7.653,3.614
						c-0.065-0.128,3.254-1.953,7.416-4.077C293.054,251.009,296.481,249.391,296.546,249.519z"/>
				</g>
			</g>
		</g>
		<g>
			<g>
				<g>
					<path fill="#E80000" d="M237.667,61.221c1.571,0.365,27.577,6.425,30.694,32.592c3.116,26.167-10.414,42.21-18.564,40.004
						c-3.714-1.005-14.387-15.187-22.334-19.259c-7.947-4.071-25.097-11.243-25.097-11.243s-3.327-16.454,6.02-29.97
						C217.731,59.829,230.119,59.469,237.667,61.221z"/>
				</g>
				<g>
					<path fill="#455A64" d="M250.402,87.914c6.242,0.496,18.435,11.3,18.435,11.3c1.049,7.102-0.977,18.036-1.447,17.83
						c0,0-20.851-15.529-22.574-19.83C243.251,93.309,244.16,87.418,250.402,87.914z"/>
				</g>
				<g>
					<path fill="#263238" d="M201.727,97.994c10.454,1.655,19.818,7.699,28.239,13.859c8.919,6.523,15.696,13.875,23.325,21.847
						c-1.167,0.324-2.398,0.55-3.495,0.117c-3.827-1.513-14.484-12.623-22.42-17.921c-7.434-4.963-25.012-12.581-25.012-12.581
						S201.528,101.296,201.727,97.994z"/>
				</g>
			</g>
			<g opacity="0.3">
				<g>
					<path fill="#FFFFFF" d="M230.426,62.072c-6.468,0.248-12.485,3.578-16.914,8.347c-1.598,1.72-3.085,3.644-3.724,5.913
						c-0.639,2.269-0.272,4.953,1.422,6.577c1.829,1.754,4.755,1.864,7.104,0.938c2.349-0.925,4.254-2.701,6.093-4.443
						c1.839-1.742,3.731-3.528,6.067-4.483c3.656-1.495,7.796-0.734,11.639,0.162c3.844,0.896,7.868,1.907,11.673,0.859
						c0.874-0.241,1.802-0.667,2.153-1.51c0.573-1.377-0.707-2.785-1.899-3.669c-5.975-4.433-12.484-7.585-19.842-8.487
						C234.198,62.277,232.826,61.98,230.426,62.072z"/>
				</g>
			</g>
			<g opacity="0.3">
				<polygon fill="#FFFFFF" points="261.808,93.641 262.007,112.926 256.834,108.811 256.642,90.289 				"/>
			</g>
			<g opacity="0.3">
				<path fill="#FFFFFF" d="M255.048,89.442l-0.455,17.524l-2.785-2.372l0.509-16.28C252.317,88.313,254.591,89.211,255.048,89.442z
					"/>
			</g>
		</g>
		<g>
			<g>
				<path fill="#455A64" d="M299.225,194.517c-1.344,0.83-4.103,2.438-6.31,3.708c-1.369,0.788-2.671,1.907-3.078,3.432
					c-0.201,0.753-0.151,1.615,0.323,2.233c0.654,0.852,1.892,0.997,2.951,0.822c1.059-0.176,5.842-2.728,7.933-4.266
					L299.225,194.517z"/>
			</g>
			<g>
				<path fill="#FFBF9D" d="M286.463,192.543c0.303-0.076,11.456-6.837,13.203-6.677c1.746,0.16,10.547,3.566,10.927,5.008
					c0.379,1.442-1.594,4.78-1.594,4.78h-0.379c0,0,1.518,1.442,0.379,2.959c-1.138,1.518-2.457,2.58-2.457,2.58
					s2.23,2.049,0.333,3.794c-1.897,1.745-5.311-0.303-5.311-0.303s-2.504,1.499-3.87,0.75c-1.366-0.75-0.416-1.885-0.416-1.885
					l2.465-1.976c0,0,0.683,0.399-0.228-1.925c-0.91-2.324-1.825-2.37-3.682-2.347c-1.857,0.023-4.665,1.54-5.196,3.058
					c-0.531,1.518-4.173,3.87-4.173,3.87V192.543z"/>
			</g>
		</g>
		<g>
			<path fill="#E80000" d="M239.291,130.398c0,0,5.185,20.61,5.394,29.82c0.315,13.869-2.432,56.818-0.295,57.709
				c5.339,2.227,5.339,4.315,5.339,4.315s-5.697,4.168-19.334,12.035c-13.637,7.868-22.554,28.958-24.128,28.772
				c-1.573-0.186-20.936-3.199-26.907-17.391c-3.851-9.153-0.824-23.169-0.824-23.169s11.791-77.449,14.508-85.446
				c1.814-5.339,6.199-9.433,19.095-12.416C224.389,121.795,232.038,123.866,239.291,130.398z"/>
		</g>
		<g opacity="0.3">
			<path d="M206.437,175.995c0,0,7.184,29.282,8.928,31.768c1.743,2.486-33.034,14.339-32.514,14.728
				c0.519,0.389,27.366-6.864,32.514-9.266l2.609-1.592c0,0,2.768,5.12,10.727,7.577c7.959,2.458,22.832-3.704,22.832-3.704
				L206.437,175.995z"/>
		</g>
		<g>
			<g>
				<path fill="#263238" d="M212.853,200.555c0.02,0.03-0.424,0.373-1.246,0.969c-0.82,0.598-2.028,1.435-3.537,2.444
					c-3.017,2.019-7.267,4.689-12.097,7.404c-4.834,2.712-9.327,4.951-12.621,6.476c-1.647,0.763-2.99,1.359-3.927,1.747
					c-0.937,0.392-1.461,0.592-1.476,0.56c-0.015-0.033,0.482-0.296,1.392-0.744c0.993-0.488,2.289-1.126,3.852-1.895
					c3.248-1.607,7.703-3.892,12.526-6.598c4.819-2.708,9.089-5.322,12.152-7.259c1.47-0.934,2.69-1.709,3.624-2.303
					C212.35,200.812,212.833,200.525,212.853,200.555z"/>
			</g>
		</g>
		<g>
			<path fill="#E80000" d="M194.754,133.18c-3.265,0.168-6.627,0.038-9.655-1.195c-3.028-1.233-5.69-3.742-6.382-6.938
				c-0.533-2.463,0.151-5.078,1.451-7.237c1.3-2.159,3.173-3.914,5.146-5.483c4.136-3.288,8.822-5.882,13.805-7.641
				c2.255-0.796,4.718-1.424,7.014-0.756c1.606,0.467,2.965,1.524,4.28,2.558c5.411,4.253,10.822,8.507,16.233,12.76
				c5.223,4.105,10.714,8.585,12.758,14.906l-0.997,6.688l-13.768-8.39L194.754,133.18z"/>
		</g>
		<g>
			<g>
				<path fill="#263238" d="M206.56,175.53c-0.108,0.095-2.352-2.26-5.013-5.26c-2.662-3.001-4.731-5.511-4.624-5.606
					c0.108-0.095,2.352,2.259,5.013,5.261C204.597,172.924,206.667,175.435,206.56,175.53z"/>
			</g>
		</g>
		<g>
			<g>
				<path fill="#263238" d="M213.541,123.566c0.017,0.079-1.337,0.41-3.494,1.031c-2.15,0.629-5.121,1.563-8.137,3.148
					c-1.499,0.806-2.842,1.717-3.979,2.648c-1.12,0.952-2.036,1.915-2.711,2.8c-1.357,1.768-1.898,3.068-1.999,3.018
					c-0.033-0.015,0.093-0.339,0.351-0.919c0.126-0.291,0.283-0.648,0.526-1.028c0.24-0.381,0.468-0.848,0.826-1.292
					c0.652-0.933,1.564-1.95,2.695-2.946c1.148-0.975,2.516-1.921,4.045-2.742c3.076-1.616,6.1-2.503,8.287-3.045
					c1.096-0.269,1.991-0.455,2.613-0.56C213.186,123.574,213.533,123.531,213.541,123.566z"/>
			</g>
		</g>
		<g opacity="0.3">
			<g>
				<path d="M205.926,125.868c-3.404,0.407-6.714,1.367-10.075,2.044c-3.361,0.678-6.855,1.071-10.204,0.338
					c-2.75-0.601-5.402-2.066-7.085-4.281c0.028,0.361,0.077,0.721,0.154,1.077c0.691,3.196,3.354,5.704,6.382,6.938
					c3.028,1.233,6.39,1.363,9.655,1.195l0.178-0.004c0.399-0.439,0.777-0.905,1.165-1.347
					C198.664,128.903,202.146,126.792,205.926,125.868z"/>
			</g>
		</g>
		<g>
			<g>
				<g>
					<path fill="#263238" d="M229.52,134.396c-0.071,0.102-1.463-1.316-4.327-2.499c-1.421-0.592-3.213-1.072-5.241-1.21
						c-2.023-0.142-4.284,0.105-6.484,0.899c-2.19,0.824-4.07,2.105-5.518,3.526c-1.454,1.421-2.505,2.95-3.202,4.322
						c-1.411,2.758-1.549,4.74-1.669,4.709c-0.018-0.002-0.014-0.123,0.009-0.353c0.032-0.228,0.046-0.571,0.146-0.999
						c0.157-0.863,0.51-2.097,1.185-3.521c0.671-1.425,1.717-3.017,3.195-4.499c1.471-1.482,3.405-2.819,5.675-3.673
						c2.28-0.823,4.619-1.061,6.699-0.889c2.086,0.168,3.915,0.701,5.35,1.349c1.438,0.645,2.508,1.354,3.187,1.91
						c0.353,0.26,0.587,0.512,0.759,0.665C229.451,134.292,229.532,134.382,229.52,134.396z"/>
				</g>
			</g>
			<g>
				<g>
					<path fill="#E80000" d="M202.365,161.146c0.322,1.134,11.047,39.432,15.892,45.202c4.845,5.77,12.404,9.84,20.544,9.84
						c8.14,0,39.343-2.52,43.025-6.008c3.682-3.488,11.611-17.403,3.286-18.586c-8.325-1.183-44.955-1.57-44.955-1.57
						s-1.163-1.357-1.357-1.357c-0.194,0,1.75-2.294,1.357-4.458c-0.903-4.973-2.132-27.327-4.264-34.691
						c-2.132-7.365-8.527-18.605-18.799-16.474S199.684,151.697,202.365,161.146z"/>
				</g>
				<g>
					<g>
						<path fill="#263238" d="M237.553,192.282c0.019,0.023-0.339,0.373-1.046,0.933c-0.706,0.562-1.764,1.333-3.154,2.161
							c-1.386,0.83-3.108,1.708-5.102,2.485c-0.995,0.391-2.059,0.756-3.179,1.074c-0.568,0.156-1.115,0.321-1.736,0.444
							c-0.315,0.051-0.656,0.077-1.01-0.024c-0.327-0.102-0.718-0.305-0.834-0.778c-0.083-0.489,0.241-0.819,0.47-1.027
							c0.254-0.224,0.514-0.377,0.763-0.545c0.5-0.338,1.01-0.643,1.515-0.934c1.009-0.584,2.013-1.089,2.981-1.539
							c1.935-0.906,3.729-1.593,5.242-2.146c1.515-0.549,2.754-0.949,3.614-1.214c0.86-0.264,1.343-0.389,1.354-0.356
							c0.012,0.035-0.449,0.225-1.288,0.548c-0.932,0.359-2.123,0.817-3.55,1.367c-1.49,0.595-3.261,1.314-5.166,2.235
							c-0.954,0.458-1.941,0.966-2.931,1.547c-0.495,0.29-0.995,0.592-1.484,0.924c-0.245,0.166-0.505,0.324-0.705,0.503
							c-0.206,0.178-0.346,0.39-0.304,0.537c0.022,0.148,0.233,0.315,0.469,0.379c0.23,0.068,0.507,0.058,0.778,0.012
							c0.551-0.106,1.135-0.276,1.682-0.423c1.107-0.308,2.16-0.658,3.147-1.032c1.977-0.743,3.695-1.576,5.09-2.356
							c1.398-0.777,2.479-1.496,3.217-2.004C237.126,192.545,237.526,192.249,237.553,192.282z"/>
					</g>
				</g>
				<g>
					<g>
						<path fill="#263238" d="M243.161,195.666c0.023,0.015-0.203,0.438-0.707,1.14c-0.501,0.703-1.286,1.686-2.399,2.765
							c-1.106,1.084-2.547,2.254-4.289,3.338c-0.874,0.536-1.821,1.051-2.831,1.525c-0.505,0.237-1.028,0.458-1.564,0.672
							c-0.533,0.194-1.178,0.471-1.896,0.142c-0.343-0.159-0.581-0.61-0.522-0.974c0.036-0.363,0.186-0.652,0.348-0.914
							c0.356-0.511,0.707-0.912,1.068-1.349c0.716-0.851,1.44-1.645,2.154-2.376c1.431-1.459,2.819-2.672,4.027-3.631
							c1.207-0.962,2.234-1.673,2.958-2.142c0.723-0.47,1.142-0.699,1.16-0.672c0.022,0.033-0.359,0.319-1.043,0.838
							c-0.685,0.518-1.673,1.27-2.841,2.261c-1.17,0.989-2.519,2.218-3.916,3.68c-0.697,0.732-1.405,1.524-2.108,2.369
							c-0.342,0.416-0.727,0.871-1.022,1.298c-0.29,0.447-0.413,0.975-0.016,1.154c0.378,0.196,0.962,0.036,1.459-0.167
							c0.526-0.209,1.041-0.423,1.538-0.653c0.995-0.458,1.93-0.956,2.796-1.471c1.725-1.043,3.165-2.162,4.286-3.196
							C242.056,197.234,243.077,195.601,243.161,195.666z"/>
					</g>
				</g>
				<g>
					<g>
						<path fill="#263238" d="M235.894,149.518c0,0,0.081,0.239,0.21,0.712c0.141,0.471,0.309,1.182,0.495,2.12
							c0.379,1.875,0.817,4.658,1.249,8.246c0.436,3.588,0.874,7.979,1.35,13.063c0.244,2.541,0.482,5.258,0.812,8.122
							c0.087,0.715,0.176,1.44,0.297,2.165c0.164,0.742,0.096,1.575-0.145,2.314c-0.233,0.75-0.606,1.453-1.011,2.124l-0.142,0.245
							l-0.025,0.05c-0.004,0.009-0.001,0.001-0.001,0.001c-0.015-0.006,0.073-0.134-0.172-0.212
							c0.148,0.027,0.186,0.078,0.237,0.109c0.176,0.139,0.311,0.28,0.454,0.424c0.279,0.289,0.544,0.585,0.809,0.89l-0.151-0.07
							c9.492,0.107,20.401,0.257,32.292,0.697c2.973,0.11,6.006,0.256,9.094,0.476c0.772,0.069,1.547,0.104,2.327,0.204
							c0.772,0.092,1.57,0.133,2.361,0.406c0.78,0.253,1.53,0.738,2.016,1.444c0.492,0.7,0.71,1.546,0.765,2.369
							c0.102,1.663-0.317,3.278-0.848,4.821c-0.547,1.546-1.257,3.034-2.061,4.478c-0.814,1.438-1.716,2.84-2.762,4.156
							c-0.548,0.649-1.032,1.309-1.794,1.844c-0.753,0.469-1.56,0.74-2.364,1.016c-3.745,1.139-7.546,1.707-11.28,2.262
							c-3.74,0.533-7.438,0.943-11.075,1.298c-3.638,0.348-7.217,0.636-10.727,0.85c-1.755,0.107-3.493,0.197-5.214,0.251
							c-1.717,0.06-3.441,0.051-5.124-0.152c-6.752-0.862-12.633-4.296-16.72-8.677c-0.495-0.566-1.016-1.099-1.404-1.749
							c-0.202-0.314-0.431-0.614-0.607-0.936l-0.5-0.972c-0.699-1.275-1.199-2.601-1.77-3.869c-1.04-2.574-1.971-5.068-2.809-7.465
							c-3.341-9.594-5.638-17.485-7.238-22.931c-0.77-2.716-1.369-4.832-1.782-6.29c-0.19-0.708-0.336-1.253-0.441-1.642
							c-0.096-0.371-0.132-0.565-0.132-0.565s0.071,0.184,0.183,0.55c0.116,0.386,0.279,0.926,0.49,1.628
							c0.435,1.451,1.066,3.557,1.875,6.261c1.659,5.426,4.01,13.301,7.391,22.866c0.848,2.39,1.787,4.874,2.833,7.434
							c0.571,1.255,1.077,2.58,1.768,3.83l0.496,0.956c0.173,0.315,0.392,0.596,0.587,0.898c0.366,0.617,0.885,1.146,1.374,1.701
							c4.036,4.302,9.837,7.664,16.462,8.496c1.652,0.196,3.334,0.202,5.051,0.139c1.714-0.057,3.448-0.149,5.199-0.258
							c3.503-0.219,7.076-0.511,10.708-0.861c3.631-0.357,7.323-0.77,11.051-1.303c3.718-0.553,7.521-1.127,11.193-2.245
							c0.78-0.266,1.573-0.539,2.242-0.958c0.615-0.422,1.157-1.114,1.67-1.731c1.022-1.285,1.913-2.669,2.716-4.085
							c0.793-1.422,1.492-2.887,2.026-4.396c0.521-1.504,0.919-3.076,0.823-4.614c-0.05-0.762-0.249-1.511-0.672-2.112
							c-0.416-0.605-1.054-1.024-1.761-1.255c-0.698-0.246-1.482-0.294-2.253-0.385c-0.767-0.1-1.543-0.136-2.31-0.206
							c-3.075-0.223-6.106-0.373-9.076-0.488c-11.88-0.461-22.79-0.64-32.277-0.783l-0.092-0.001l-0.06-0.069
							c-0.258-0.299-0.521-0.596-0.79-0.876c-0.133-0.138-0.274-0.28-0.406-0.385c-0.029-0.027-0.07-0.035-0.019-0.03
							c-0.274-0.084-0.181-0.243-0.193-0.271l0.023-0.068l0.04-0.081l0.152-0.262c0.403-0.662,0.759-1.331,0.982-2.037
							c0.228-0.709,0.293-1.421,0.143-2.135c-0.121-0.739-0.207-1.468-0.29-2.186c-0.318-2.875-0.542-5.592-0.771-8.135
							c-0.446-5.086-0.852-9.478-1.253-13.066c-0.397-3.589-0.799-6.373-1.139-8.25c-0.167-0.94-0.316-1.653-0.437-2.128
							C235.936,149.768,235.894,149.518,235.894,149.518z"/>
					</g>
				</g>
				<g opacity="0.3">
					<g>
						<path d="M228.112,194.218c-1.795,0.697-3.497,1.677-5.061,2.743c-0.427,0.291-0.802,0.657-1.067,1.1
							c-0.104,0.175-0.196,0.387-0.109,0.57c0.066,0.139,0.215,0.212,0.365,0.26c0.431,0.137,0.878,0.214,1.33,0.203
							c2.148-0.051,3.875-1.12,5.664-2.027c1.735-0.879,3.545-1.615,5.211-2.619c1.352-0.815,2.623-1.834,3.528-3.114
							c0.209-0.296-0.087-0.682-0.426-0.555C234.493,191.928,231.079,193.067,228.112,194.218z"/>
					</g>
				</g>
			</g>
			<g opacity="0.8">
				<polygon fill="#FFFFFF" points="238.487,167.765 206.671,175.781 209.596,185.048 239.403,177.657 				"/>
			</g>
			<g opacity="0.8">
				<path fill="#FFFFFF" d="M263.235,190.568l-1.077,23.745c3.332-0.359,6.599-0.799,9.791-1.331l0.315-22.229L263.235,190.568z"/>
			</g>
		</g>
	</g>
</g>
</svg>
