<?xml version="1.0" encoding="utf-8"?>
<!-- Generator: Adobe Illustrator 24.3.0, SVG Export Plug-In . SVG Version: 6.00 Build 0)  -->
<svg version="1.1" id="Layer_1" xmlns="http://www.w3.org/2000/svg" xmlns:xlink="http://www.w3.org/1999/xlink" x="0px" y="0px"
	 viewBox="0 0 1700.8 1700.8" style="enable-background:new 0 0 1700.8 1700.8;" xml:space="preserve">
<path d="M1678.9,283.5H481.9l-18.4-130.4C451.4,66,376.3,0,287.6,0H162.9v70.9h124.7c53.2,0,97.8,39.7,105.5,91.5l143.1,1031.1
	c12.1,87.1,87.1,153.1,175.7,153.1h797.9v-70.9H712.3c-53.2,0-97.8-39.7-105.5-91.5l-17-121.1h932.7l155.9-779.5L1678.9,283.5z
	 M580.4,992.2l-88.5-637.9h1100.6l-127.6,637.9H580.4z M659.7,1417.4c-78,0-141.7,63.8-141.7,141.7c0,78,63.8,141.7,141.7,141.7
	s141.7-63.8,141.7-141.7C801.6,1481.2,737.7,1417.4,659.7,1417.4z M659.7,1630c-38.9,0-70.9-31.8-70.9-70.9
	c0-38.9,31.8-70.9,70.9-70.9s70.9,31.8,70.9,70.9C730.6,1598.2,698.8,1630,659.7,1630z M1297.6,1417.4c-78,0-141.7,63.8-141.7,141.7
	c0,78,63.8,141.7,141.7,141.7s141.7-63.8,141.7-141.7C1439.3,1481.2,1375.6,1417.4,1297.6,1417.4z M1297.6,1630
	c-38.9,0-70.9-31.8-70.9-70.9c0-38.9,31.8-70.9,70.9-70.9c38.9,0,70.9,31.8,70.9,70.9S1336.5,1630,1297.6,1630z M287,425.2H21.9
	v-70.9H277L287,425.2z M326.7,708.8H21.9v-70.9h294.8L326.7,708.8L326.7,708.8z M356.4,921.4l9.9,70.9H21.9v-70.9h333.8H356.4z"/>
</svg>
